<?xml version="1.0" encoding="utf-8"?>
<!-- Generator: Adobe Illustrator 24.0.1, SVG Export Plug-In . SVG Version: 6.00 Build 0)  -->
<svg version="1.1" id="Layer_1" xmlns="http://www.w3.org/2000/svg" xmlns:xlink="http://www.w3.org/1999/xlink" x="0px" y="0px"
	 viewBox="0 0 512 512" enable-background="new 0 0 512 512" xml:space="preserve">
<rect fill="#414141" width="512" height="512"/>
<g>
	<path fill="#FFFFFF" d="M217.506,71.512l-45.549,45.549h-30.207l23.48-22.774H84.245V48.737h80.986l-23.48-22.774h30.207
		L217.506,71.512z M220.892,25.963h-30.207l45.549,45.549l-45.549,45.549h30.207l45.549-45.549L220.892,25.963z"/>
</g>
<g>
	<path fill="#F15B2D" d="M417.954,374.201c0,16.179-11.454,36.04-25.482,44.13l-109.865,63.437c-14.012,8.09-36.937,8.09-50.949,0
		l-109.873-63.437c-14.012-8.09-25.466-27.943-25.466-44.13V247.327c0-16.179,11.454-36.032,25.466-44.114l109.865-63.437
		c14.012-8.09,36.937-8.09,50.949,0l109.865,63.437c14.012,8.09,25.482,27.943,25.482,44.114v126.875H417.954z"/>
	<path fill="#FFFFFF" d="M225.948,281.387h145.587v-40.953H226.29c-20.774,0-37.996,7.112-51.177,21.14
		c-31.698,33.743-32.554,118.761-32.554,118.761h227.835v-76.928h-40.936v35.975H186.25c0.912-13.393,7.047-37.368,18.705-49.775
		C210.233,284.01,216.897,281.387,225.948,281.387L225.948,281.387z"/>
</g>
</svg>
